<svg width="31" height="29" viewBox="0 0 31 29" fill="none" xmlns="http://www.w3.org/2000/svg">
<path d="M29.5023 14.2744L16.2282 1.00998C16.1326 0.914219 16.0191 0.838244 15.8941 0.786406C15.7692 0.734568 15.6352 0.707886 15.4999 0.707886C15.3646 0.707886 15.2306 0.734568 15.1057 0.786406C14.9807 0.838244 14.8672 0.914219 14.7716 1.00998L1.49746 14.2744C1.11074 14.6612 0.891602 15.1864 0.891602 15.7343C0.891602 16.8719 1.8165 17.7968 2.9541 17.7968H4.35273V27.2617C4.35273 27.8322 4.81357 28.293 5.38398 28.293H13.4374V21.0742H17.0468V28.293H25.6158C26.1862 28.293 26.6471 27.8322 26.6471 27.2617V17.7968H28.0457C28.5936 17.7968 29.1188 17.5809 29.5056 17.1909C30.308 16.3853 30.308 15.0801 29.5023 14.2744Z" fill="#D07397"/>
</svg>
